# xmcd
#
# Track frame offsets:
#	150
#	9509
#	22787
#	34059
#	52957
#	65583
#	78315
#	95410
#	114303
#	128453
#	142711
#	155447
#	169198
#	181203
#	197057
#
# Disc length: 2822 seconds
#
# Revision: 0
# Processed by: cddbd v1.5.2PL0 Copyright (c) Steve Scherf et al.
# Submitted via: audiograbber 1.83.01
#
DISCID=ad0b040f
DTITLE=Hermann Lammers Meyer - Nashville Is Rough On The Living
DYEAR=2010
DGENRE=Country
TTITLE0=Honky Tonk Hearts
TTITLE1=Kiss The Children
TTITLE2=Little Jack Daniel
TTITLE3=Home OF The Damned
TTITLE4=(Nashville Is) Rough On The Living (Duet with Johnny Bush)
TTITLE5=Magic In A Song (When Your Memory Comes Again) (with Sandra Caroll)
TTITLE6=Fiddlin' Man
TTITLE7=(I'll Come) Runnin' Back To You
TTITLE8=To Make A Long Story Short (She's Gone)
TTITLE9=Too Old For Nothing
TTITLE10=Puttin' Tears To A Tune (Duet with Sandra Caroll)
TTITLE11=Death Row (Duet with Johnny Bush)
TTITLE12=I Just Can't Let You Say Goodbye
TTITLE13=Nashville Blues (Duet with Sandra Caroll)
TTITLE14=She Loves Lefty (with George Chambers)
EXTD=
EXTT0=
EXTT1=
EXTT2=
EXTT3=
EXTT4=
EXTT5=
EXTT6=
EXTT7=
EXTT8=
EXTT9=
EXTT10=
EXTT11=
EXTT12=
EXTT13=
EXTT14=
PLAYORDER=
